<svg xmlns="http://www.w3.org/2000/svg" width="720" height="720" viewBox="0 0 720 720"><text x="360.0" y="30" text-anchor="middle" font-size="20" font-weight="bold" fill="#333">多模型对比</text><polygon points="360.0,610.0 506.9,562.3 597.8,437.3 597.8,282.7 506.9,157.7 360.0,110.0 213.1,157.7 122.2,282.7 122.2,437.3 213.1,562.3" fill="#eaeaea" opacity="0.5" stroke="#d5d5d5" stroke-width="2" /><polygon points="360.0,560.0 477.6,521.8 550.2,421.8 550.2,298.2 477.6,198.2 360.0,160.0 242.4,198.2 169.8,298.2 169.8,421.8 242.4,521.8" fill="#eaeaea" opacity="0.5" stroke="#d5d5d5" stroke-width="2" stroke-dasharray="3,3" /><polygon points="360.0,510.0 448.2,481.4 502.7,406.4 502.7,313.6 448.2,238.6 360.0,210.0 271.8,238.6 217.3,313.6 217.3,406.4 271.8,481.4" fill="#eaeaea" opacity="0.5" stroke="#d5d5d5" stroke-width="2" stroke-dasharray="3,3" /><polygon points="360.0,460.0 418.8,440.9 455.1,390.9 455.1,329.1 418.8,279.1 360.0,260.0 301.2,279.1 264.9,329.1 264.9,390.9 301.2,440.9" fill="#eaeaea" opacity="0.5" stroke="#d5d5d5" stroke-width="2" stroke-dasharray="3,3" /><polygon points="360.0,410.0 389.4,400.5 407.6,375.5 407.6,344.5 389.4,319.5 360.0,310.0 330.6,319.5 312.4,344.5 312.4,375.5 330.6,400.5" fill="#eaeaea" opacity="0.5" stroke="#d5d5d5" stroke-width="2" stroke-dasharray="3,3" /><line x1="360.0" y1="360.0" x2="360.0" y2="110.0" stroke="#ddd" /><text x="360.0" y="80.0" text-anchor="middle" font-size="12" fill="#444" dy="12">说话之道</text><line x1="360.0" y1="360.0" x2="506.9" y2="157.7" stroke="#ddd" /><text x="524.6" y="133.5" text-anchor="start" font-size="12" fill="#444" dy="12">饭局礼仪</text><line x1="360.0" y1="360.0" x2="597.8" y2="282.7" stroke="#ddd" /><text x="626.3" y="273.5" text-anchor="start" font-size="12" fill="#444" dy="12">面子文化</text><line x1="360.0" y1="360.0" x2="597.8" y2="437.3" stroke="#ddd" /><text x="626.3" y="446.5" text-anchor="start" font-size="12" fill="#444" dy="1">职场潜规</text><line x1="360.0" y1="360.0" x2="506.9" y2="562.3" stroke="#ddd" /><text x="524.6" y="586.5" text-anchor="start" font-size="12" fill="#444" dy="1">人情往来</text><line x1="360.0" y1="360.0" x2="360.0" y2="610.0" stroke="#ddd" /><text x="360.0" y="640.0" text-anchor="middle" font-size="12" fill="#444" dy="1">拒绝的艺</text><line x1="360.0" y1="360.0" x2="213.1" y2="562.3" stroke="#ddd" /><text x="195.4" y="586.5" text-anchor="end" font-size="12" fill="#444" dy="1">分寸与边</text><line x1="360.0" y1="360.0" x2="122.2" y2="437.3" stroke="#ddd" /><text x="93.7" y="446.5" text-anchor="end" font-size="12" fill="#444" dy="1">家庭关系</text><line x1="360.0" y1="360.0" x2="122.2" y2="282.7" stroke="#ddd" /><text x="93.7" y="273.5" text-anchor="end" font-size="12" fill="#444" dy="12">敏感话题</text><line x1="360.0" y1="360.0" x2="213.1" y2="157.7" stroke="#ddd" /><text x="195.4" y="133.5" text-anchor="end" font-size="12" fill="#444" dy="12">危机化解</text><polygon points="360.0,569.1 459.9,497.5 552.9,422.7 534.4,303.3 470.7,207.6 360.0,134.6 240.0,194.8 199.1,307.7 185.4,416.7 240.1,525.0" fill="#e6194b" opacity="0.18" stroke="#e6194b" stroke-width="2" /><circle cx="360.0" cy="150.9" r="2.6" fill="#e6194b" /><circle cx="459.9" cy="222.5" r="2.6" fill="#e6194b" /><circle cx="552.9" cy="297.3" r="2.6" fill="#e6194b" /><circle cx="534.4" cy="416.7" r="2.6" fill="#e6194b" /><circle cx="470.7" cy="512.4" r="2.6" fill="#e6194b" /><circle cx="360.0" cy="585.4" r="2.6" fill="#e6194b" /><circle cx="240.0" cy="525.2" r="2.6" fill="#e6194b" /><circle cx="199.1" cy="412.3" r="2.6" fill="#e6194b" /><circle cx="185.4" cy="303.3" r="2.6" fill="#e6194b" /><circle cx="240.1" cy="195.0" r="2.6" fill="#e6194b" /><polygon points="360.0,509.1 454.0,489.4 441.2,386.4 524.9,306.4 468.0,211.3 360.0,133.4 242.4,198.2 179.6,301.4 171.4,421.3 260.2,497.3" fill="#3cb44b" opacity="0.18" stroke="#3cb44b" stroke-width="2" /><circle cx="360.0" cy="210.9" r="2.6" fill="#3cb44b" /><circle cx="454.0" cy="230.6" r="2.6" fill="#3cb44b" /><circle cx="441.2" cy="333.6" r="2.6" fill="#3cb44b" /><circle cx="524.9" cy="413.6" r="2.6" fill="#3cb44b" /><circle cx="468.0" cy="508.7" r="2.6" fill="#3cb44b" /><circle cx="360.0" cy="586.6" r="2.6" fill="#3cb44b" /><circle cx="242.4" cy="521.8" r="2.6" fill="#3cb44b" /><circle cx="179.6" cy="418.6" r="2.6" fill="#3cb44b" /><circle cx="171.4" cy="298.7" r="2.6" fill="#3cb44b" /><circle cx="260.2" cy="222.7" r="2.6" fill="#3cb44b" /><polygon points="360.0,544.1 489.3,538.0 444.8,387.5 530.8,304.5 464.8,215.7 360.0,142.1 240.5,195.5 157.9,294.3 188.8,415.6 253.5,506.6" fill="#4363d8" opacity="0.18" stroke="#4363d8" stroke-width="2" /><circle cx="360.0" cy="175.9" r="2.6" fill="#4363d8" /><circle cx="489.3" cy="182.0" r="2.6" fill="#4363d8" /><circle cx="444.8" cy="332.5" r="2.6" fill="#4363d8" /><circle cx="530.8" cy="415.5" r="2.6" fill="#4363d8" /><circle cx="464.8" cy="504.3" r="2.6" fill="#4363d8" /><circle cx="360.0" cy="577.9" r="2.6" fill="#4363d8" /><circle cx="240.5" cy="524.5" r="2.6" fill="#4363d8" /><circle cx="157.9" cy="425.7" r="2.6" fill="#4363d8" /><circle cx="188.8" cy="304.4" r="2.6" fill="#4363d8" /><circle cx="253.5" cy="213.4" r="2.6" fill="#4363d8" /><polygon points="360.0,562.9 452.6,487.4 566.0,426.9 528.5,305.3 468.5,210.6 360.0,140.9 246.4,203.6 172.5,299.1 182.5,417.7 255.3,504.1" fill="#f58231" opacity="0.18" stroke="#f58231" stroke-width="2" /><circle cx="360.0" cy="157.1" r="2.6" fill="#f58231" /><circle cx="452.6" cy="232.6" r="2.6" fill="#f58231" /><circle cx="566.0" cy="293.1" r="2.6" fill="#f58231" /><circle cx="528.5" cy="414.7" r="2.6" fill="#f58231" /><circle cx="468.5" cy="509.4" r="2.6" fill="#f58231" /><circle cx="360.0" cy="579.1" r="2.6" fill="#f58231" /><circle cx="246.4" cy="516.4" r="2.6" fill="#f58231" /><circle cx="172.5" cy="420.9" r="2.6" fill="#f58231" /><circle cx="182.5" cy="302.3" r="2.6" fill="#f58231" /><circle cx="255.3" cy="215.9" r="2.6" fill="#f58231" /><polygon points="360.0,581.6 470.2,511.7 555.3,423.5 527.3,305.7 457.0,226.5 360.0,133.4 249.3,207.6 166.3,297.1 186.4,416.4 244.7,518.7" fill="#911eb4" opacity="0.18" stroke="#911eb4" stroke-width="2" /><circle cx="360.0" cy="138.4" r="2.6" fill="#911eb4" /><circle cx="470.2" cy="208.3" r="2.6" fill="#911eb4" /><circle cx="555.3" cy="296.5" r="2.6" fill="#911eb4" /><circle cx="527.3" cy="414.3" r="2.6" fill="#911eb4" /><circle cx="457.0" cy="493.5" r="2.6" fill="#911eb4" /><circle cx="360.0" cy="586.6" r="2.6" fill="#911eb4" /><circle cx="249.3" cy="512.4" r="2.6" fill="#911eb4" /><circle cx="166.3" cy="422.9" r="2.6" fill="#911eb4" /><circle cx="186.4" cy="303.6" r="2.6" fill="#911eb4" /><circle cx="244.7" cy="201.3" r="2.6" fill="#911eb4" /><polygon points="360.0,551.6 487.8,536.0 523.2,413.0 527.3,305.7 464.1,216.7 360.0,137.1 243.9,200.2 186.4,303.6 180.9,418.2 302.8,438.7" fill="#46f0f0" opacity="0.18" stroke="#46f0f0" stroke-width="2" /><circle cx="360.0" cy="168.4" r="2.6" fill="#46f0f0" /><circle cx="487.8" cy="184.0" r="2.6" fill="#46f0f0" /><circle cx="523.2" cy="307.0" r="2.6" fill="#46f0f0" /><circle cx="527.3" cy="414.3" r="2.6" fill="#46f0f0" /><circle cx="464.1" cy="503.3" r="2.6" fill="#46f0f0" /><circle cx="360.0" cy="582.9" r="2.6" fill="#46f0f0" /><circle cx="243.9" cy="519.8" r="2.6" fill="#46f0f0" /><circle cx="186.4" cy="416.4" r="2.6" fill="#46f0f0" /><circle cx="180.9" cy="301.8" r="2.6" fill="#46f0f0" /><circle cx="302.8" cy="281.3" r="2.6" fill="#46f0f0" /><rect x="520" y="30" width="12" height="12" fill="#e6194b" /><text x="538" y="41" font-size="12" fill="#333">deepseek-v4-flash-free</text><rect x="520" y="50" width="12" height="12" fill="#3cb44b" /><text x="538" y="61" font-size="12" fill="#333">grok-4.20-0309-reasoning</text><rect x="520" y="70" width="12" height="12" fill="#4363d8" /><text x="538" y="81" font-size="12" fill="#333">grok-4.3-fast</text><rect x="520" y="90" width="12" height="12" fill="#f58231" /><text x="538" y="101" font-size="12" fill="#333">grok-4.5</text><rect x="520" y="110" width="12" height="12" fill="#911eb4" /><text x="538" y="121" font-size="12" fill="#333">hy3-free</text><rect x="520" y="130" width="12" height="12" fill="#46f0f0" /><text x="538" y="141" font-size="12" fill="#333">nemotron-3.5-lightning-free</text></svg>