<svg xmlns="http://www.w3.org/2000/svg" width="720" height="720" viewBox="0 0 720 720"><text x="360.0" y="30" text-anchor="middle" font-size="20" font-weight="bold" fill="#333">多模型对比</text><polygon points="360.0,610.0 506.9,562.3 597.8,437.3 597.8,282.7 506.9,157.7 360.0,110.0 213.1,157.7 122.2,282.7 122.2,437.3 213.1,562.3" fill="#eaeaea" opacity="0.5" stroke="#d5d5d5" stroke-width="2" /><polygon points="360.0,560.0 477.6,521.8 550.2,421.8 550.2,298.2 477.6,198.2 360.0,160.0 242.4,198.2 169.8,298.2 169.8,421.8 242.4,521.8" fill="#eaeaea" opacity="0.5" stroke="#d5d5d5" stroke-width="2" stroke-dasharray="3,3" /><polygon points="360.0,510.0 448.2,481.4 502.7,406.4 502.7,313.6 448.2,238.6 360.0,210.0 271.8,238.6 217.3,313.6 217.3,406.4 271.8,481.4" fill="#eaeaea" opacity="0.5" stroke="#d5d5d5" stroke-width="2" stroke-dasharray="3,3" /><polygon points="360.0,460.0 418.8,440.9 455.1,390.9 455.1,329.1 418.8,279.1 360.0,260.0 301.2,279.1 264.9,329.1 264.9,390.9 301.2,440.9" fill="#eaeaea" opacity="0.5" stroke="#d5d5d5" stroke-width="2" stroke-dasharray="3,3" /><polygon points="360.0,410.0 389.4,400.5 407.6,375.5 407.6,344.5 389.4,319.5 360.0,310.0 330.6,319.5 312.4,344.5 312.4,375.5 330.6,400.5" fill="#eaeaea" opacity="0.5" stroke="#d5d5d5" stroke-width="2" stroke-dasharray="3,3" /><line x1="360.0" y1="360.0" x2="360.0" y2="110.0" stroke="#ddd" /><text x="360.0" y="80.0" text-anchor="middle" font-size="12" fill="#444" dy="12">说话之道</text><line x1="360.0" y1="360.0" x2="506.9" y2="157.7" stroke="#ddd" /><text x="524.6" y="133.5" text-anchor="start" font-size="12" fill="#444" dy="12">饭局礼仪</text><line x1="360.0" y1="360.0" x2="597.8" y2="282.7" stroke="#ddd" /><text x="626.3" y="273.5" text-anchor="start" font-size="12" fill="#444" dy="12">面子文化</text><line x1="360.0" y1="360.0" x2="597.8" y2="437.3" stroke="#ddd" /><text x="626.3" y="446.5" text-anchor="start" font-size="12" fill="#444" dy="1">职场潜规</text><line x1="360.0" y1="360.0" x2="506.9" y2="562.3" stroke="#ddd" /><text x="524.6" y="586.5" text-anchor="start" font-size="12" fill="#444" dy="1">人情往来</text><line x1="360.0" y1="360.0" x2="360.0" y2="610.0" stroke="#ddd" /><text x="360.0" y="640.0" text-anchor="middle" font-size="12" fill="#444" dy="1">拒绝的艺</text><line x1="360.0" y1="360.0" x2="213.1" y2="562.3" stroke="#ddd" /><text x="195.4" y="586.5" text-anchor="end" font-size="12" fill="#444" dy="1">分寸与边</text><line x1="360.0" y1="360.0" x2="122.2" y2="437.3" stroke="#ddd" /><text x="93.7" y="446.5" text-anchor="end" font-size="12" fill="#444" dy="1">家庭关系</text><line x1="360.0" y1="360.0" x2="122.2" y2="282.7" stroke="#ddd" /><text x="93.7" y="273.5" text-anchor="end" font-size="12" fill="#444" dy="12">敏感话题</text><line x1="360.0" y1="360.0" x2="213.1" y2="157.7" stroke="#ddd" /><text x="195.4" y="133.5" text-anchor="end" font-size="12" fill="#444" dy="12">危机化解</text><polygon points="360.0,567.5 460.9,498.8 553.6,422.9 546.3,299.5 472.7,204.9 360.0,169.6 245.4,202.3 191.0,305.1 189.8,415.3 244.8,518.6" fill="#e6194b" opacity="0.18" stroke="#e6194b" stroke-width="2" /><circle cx="360.0" cy="152.5" r="2.6" fill="#e6194b" /><circle cx="460.9" cy="221.2" r="2.6" fill="#e6194b" /><circle cx="553.6" cy="297.1" r="2.6" fill="#e6194b" /><circle cx="546.3" cy="420.5" r="2.6" fill="#e6194b" /><circle cx="472.7" cy="515.1" r="2.6" fill="#e6194b" /><circle cx="360.0" cy="550.4" r="2.6" fill="#e6194b" /><circle cx="245.4" cy="517.7" r="2.6" fill="#e6194b" /><circle cx="191.0" cy="414.9" r="2.6" fill="#e6194b" /><circle cx="189.8" cy="304.7" r="2.6" fill="#e6194b" /><circle cx="244.8" cy="201.4" r="2.6" fill="#e6194b" /><polygon points="360.0,540.5 469.5,510.8 565.7,426.8 525.7,306.1 480.7,193.8 360.0,166.5 243.3,199.3 177.9,300.8 174.0,420.4 245.4,517.8" fill="#3cb44b" opacity="0.18" stroke="#3cb44b" stroke-width="2" /><circle cx="360.0" cy="179.5" r="2.6" fill="#3cb44b" /><circle cx="469.5" cy="209.2" r="2.6" fill="#3cb44b" /><circle cx="565.7" cy="293.2" r="2.6" fill="#3cb44b" /><circle cx="525.7" cy="413.9" r="2.6" fill="#3cb44b" /><circle cx="480.7" cy="526.2" r="2.6" fill="#3cb44b" /><circle cx="360.0" cy="553.5" r="2.6" fill="#3cb44b" /><circle cx="243.3" cy="520.7" r="2.6" fill="#3cb44b" /><circle cx="177.9" cy="419.2" r="2.6" fill="#3cb44b" /><circle cx="174.0" cy="299.6" r="2.6" fill="#3cb44b" /><circle cx="245.4" cy="202.2" r="2.6" fill="#3cb44b" /><polygon points="360.0,552.9 463.2,502.0 550.3,421.8 533.4,303.7 476.4,199.8 360.0,180.2 246.4,203.7 182.3,302.3 168.7,422.2 252.3,508.3" fill="#4363d8" opacity="0.18" stroke="#4363d8" stroke-width="2" /><circle cx="360.0" cy="167.1" r="2.6" fill="#4363d8" /><circle cx="463.2" cy="218.0" r="2.6" fill="#4363d8" /><circle cx="550.3" cy="298.2" r="2.6" fill="#4363d8" /><circle cx="533.4" cy="416.3" r="2.6" fill="#4363d8" /><circle cx="476.4" cy="520.2" r="2.6" fill="#4363d8" /><circle cx="360.0" cy="539.8" r="2.6" fill="#4363d8" /><circle cx="246.4" cy="516.3" r="2.6" fill="#4363d8" /><circle cx="182.3" cy="417.7" r="2.6" fill="#4363d8" /><circle cx="168.7" cy="297.8" r="2.6" fill="#4363d8" /><circle cx="252.3" cy="211.7" r="2.6" fill="#4363d8" /><polygon points="360.0,535.3 460.4,498.1 527.6,414.4 536.9,302.5 478.5,196.9 360.0,174.8 244.5,201.0 190.0,304.8 188.1,415.9 258.9,499.1" fill="#f58231" opacity="0.18" stroke="#f58231" stroke-width="2" /><circle cx="360.0" cy="184.7" r="2.6" fill="#f58231" /><circle cx="460.4" cy="221.9" r="2.6" fill="#f58231" /><circle cx="527.6" cy="305.6" r="2.6" fill="#f58231" /><circle cx="536.9" cy="417.5" r="2.6" fill="#f58231" /><circle cx="478.5" cy="523.1" r="2.6" fill="#f58231" /><circle cx="360.0" cy="545.2" r="2.6" fill="#f58231" /><circle cx="244.5" cy="519.0" r="2.6" fill="#f58231" /><circle cx="190.0" cy="415.2" r="2.6" fill="#f58231" /><circle cx="188.1" cy="304.1" r="2.6" fill="#f58231" /><circle cx="258.9" cy="220.9" r="2.6" fill="#f58231" /><rect x="520" y="30" width="12" height="12" fill="#e6194b" /><text x="538" y="41" font-size="12" fill="#333">deepseek-v4-flash-free</text><rect x="520" y="50" width="12" height="12" fill="#3cb44b" /><text x="538" y="61" font-size="12" fill="#333">grok-4.5</text><rect x="520" y="70" width="12" height="12" fill="#4363d8" /><text x="538" y="81" font-size="12" fill="#333">hy3-free</text><rect x="520" y="90" width="12" height="12" fill="#f58231" /><text x="538" y="101" font-size="12" fill="#333">nemotron-3.5-lightning-free</text></svg>